# xmcd
#
# Track frame offsets: 
#        187
#        10334
#        22759
#        42117
#        47742
#        70994
#        76754
#        81534
#        102709
#        115324
#        129627
#        136239
#        153319
#        159862
#        183119
#        191649
#        203734
#        214117
#        218922
#        236577
#        253837
#        269232
#        292832
#        299959
#        304392
#
# Disc length: 4384 seconds
#
# Revision: 0
# Processed by: cddbd v1.5.2PL0 Copyright (c) Steve Scherf et al.
# Submitted via: ExactAudioCopy v0.99pb4
#
DISCID=78111e19
DTITLE=Various Artist - JOHN DOWLAND - LUTE WORKS
DYEAR=2004
DGENRE=Chamber Music
TTITLE0=Melancholy Galliard
TTITLE1=Sir John Smith - His Almain
TTITLE2=A Dream
TTITLE3=Mr Dowland's Midnight
TTITLE4=A Fantasia
TTITLE5=The Most Sacred Queen Elizabeth - Her Galliard
TTITLE6=Come away
TTITLE7=Lachrimae
TTITLE8=Galliard to Lachrimae
TTITLE9=Semper Dowland - Semper dolens
TTITLE10=Lady Hundson's Puffe
TTITLE11=Go from my window
TTITLE12=Lord Willoughby's Welcome Home
TTITLE13=Piper's Pavan
TTITLE14=Captain Digorie Piper's Galliard
TTITLE15=Earl of Derby - His Galliiard
TTITLE16=Fortune
TTITLE17=Orlando sleepeth
TTITLE18=Robin
TTITLE19=Forlorne Hope Fancy
TTITLE20=The King of Denmark - His Galliard
TTITLE21=Sir Henry Umpton's Funeral
TTITLE22=Mrs Vaux's Jig
TTITLE23=Mrs Winter's Jump
TTITLE24=Farewell fancy
EXTD=
EXTT0=
EXTT1=
EXTT2=
EXTT3=
EXTT4=
EXTT5=
EXTT6=
EXTT7=
EXTT8=
EXTT9=
EXTT10=
EXTT11=
EXTT12=
EXTT13=
EXTT14=
EXTT15=
EXTT16=
EXTT17=
EXTT18=
EXTT19=
EXTT20=
EXTT21=
EXTT22=
EXTT23=
EXTT24=
PLAYORDER=
